<svg xmlns="http://www.w3.org/2000/svg" width="80" height="80"><g fill="none" fill-rule="evenodd"><path stroke="#D8262C" stroke-width="4" d="M69 17.72c0 4.25-13.01 7.7-29.06 7.7-16.05 0-29.07-3.45-29.07-7.7 0-4.26 13.02-7.7 29.07-7.7S69 13.45 69 17.71zm0 14.4c0 2.24-3.56 4.26-9.32 5.67M69 46.52c0 1.88-2.51 3.61-6.76 4.95"/><path stroke="#D8262C" stroke-width="4" d="M11 18v42.85c0 4.24 12.98 8.6 29 8.6s29-4.36 29-8.6V18"/><path stroke="#D8262C" stroke-width="4" d="M48.57 61.03c2.34 0 4.42-1.21 4.42-3.64v-7.08s-.07-3.73 4.28-3.73m-8.7-13.67c2.34 0 4.42 1.22 4.42 3.64v6.23s-.07 3.73 4.28 3.73M31.3 32.91c-2.33 0-4.42 1.22-4.42 3.64v6.23s.07 3.73-4.28 3.73m8.7 14.52c-2.33 0-4.42-1.21-4.42-3.64v-7.08s.07-3.73-4.28-3.73"/><path fill="#D8262C" d="M35.72 46.7a2.58 2.58 0 11-5.16 0 2.58 2.58 0 015.16 0m6.82.03a2.58 2.58 0 11-5.17 0 2.58 2.58 0 015.17 0m6.82-.03a2.58 2.58 0 11-5.17 0 2.58 2.58 0 015.17 0"/><path stroke="#D8262C" stroke-width="4" d="M11 32.12c0 2.24 3.43 4.26 9.19 5.67M11 46.52c0 1.88 2.38 3.61 6.63 4.95"/></g></svg>